<svg width="173" height="21" viewBox="0 0 173 21" fill="none" xmlns="http://www.w3.org/2000/svg">
<path d="M3.56787 21V2.89418e-06L0 0V21L3.56787 21Z" fill="#F3BD00"/>
<path d="M7.6791 8.35988V2.89418e-06L20.8053 7.28431C20.5083 7.5956 20.1983 7.9613 19.9339 8.35988H7.6791Z" fill="#F3BD00"/>
<path d="M20.8494 13.6912C20.6118 13.4074 20.3338 13.0463 20.0769 12.6401H7.6791V21L20.8494 13.6912Z" fill="#F3BD00"/>
<path d="M22.3219 8.09274L26.7333 10.5261L22.3219 12.9594C22.3219 12.9594 20.8514 11.7139 20.8514 10.5261C20.8514 9.33823 22.3219 8.09274 22.3219 8.09274Z" fill="#F3BD00"/>
<path d="M37.1434 15.884C36.1791 15.884 35.4268 15.6106 34.8866 15.0637C34.3531 14.5168 34.0864 13.7622 34.0864 12.8V7.12008H32.404V5.31329H34.1172V2.59274L36.1996 1.05594V5.31329H38.8669V7.12008H36.1996V12.4366C36.1996 12.9904 36.3125 13.3884 36.5382 13.6307C36.7639 13.8661 37.0887 13.9838 37.5127 13.9838C37.9231 13.9838 38.371 13.873 38.8566 13.6515L38.8669 15.5933C38.6617 15.6694 38.4018 15.7352 38.0872 15.7905C37.7726 15.8528 37.458 15.884 37.1434 15.884Z" fill="#2E2E2E"/>
<path d="M44.9608 15.884C43.8734 15.884 42.9501 15.6452 42.191 15.1675C41.4319 14.6829 40.8608 14.0357 40.4778 13.2257C40.0949 12.4158 39.9034 11.5228 39.9034 10.5467C39.9034 9.58449 40.0846 8.69149 40.4471 7.86771C40.8164 7.037 41.3669 6.37244 42.0987 5.87402C42.8373 5.36867 43.7332 5.116 44.7864 5.116C45.8875 5.116 46.7834 5.37214 47.4741 5.8844C48.1717 6.38975 48.6709 7.03008 48.9718 7.80541C49.2796 8.58073 49.4335 9.38028 49.4335 10.2041C49.4335 10.3979 49.4232 10.5883 49.4027 10.7752C49.389 10.9621 49.3719 11.0936 49.3514 11.1698H42.1397C42.2354 12.042 42.5158 12.7204 42.9809 13.205C43.4528 13.6896 44.1162 13.9318 44.971 13.9318C45.4976 13.9318 45.9729 13.8419 46.397 13.6619C46.8278 13.4819 47.2347 13.1807 47.6177 12.7585L49.0744 14.0564C48.5068 14.6795 47.8879 15.1398 47.2176 15.4375C46.5543 15.7352 45.802 15.884 44.9608 15.884ZM47.3407 9.61219C47.3544 9.38374 47.3339 9.16568 47.2792 8.95801C47.1698 8.34882 46.8962 7.85732 46.4585 7.48351C46.0208 7.10969 45.4566 6.92278 44.7659 6.92278C43.9999 6.92278 43.3981 7.16507 42.9604 7.64965C42.5295 8.13422 42.256 8.7884 42.1397 9.61219H47.3407Z" fill="#2E2E2E"/>
<path d="M55.3222 15.884C54.2964 15.884 53.4176 15.6382 52.6858 15.1467C51.954 14.6552 51.4035 14.0011 51.0342 13.1842C50.6649 12.3674 50.4802 11.4778 50.4802 10.5156C50.4802 9.57411 50.6615 8.69149 51.0239 7.86771C51.3864 7.04393 51.9301 6.37936 52.655 5.87402C53.3868 5.36867 54.269 5.116 55.3017 5.116C56.307 5.116 57.1858 5.36867 57.9381 5.87402C58.6904 6.37936 59.2546 7.12354 59.6308 8.10653L57.6201 8.8957C57.4423 8.3419 57.1482 7.89886 56.7379 7.56658C56.3275 7.2343 55.8488 7.06816 55.3017 7.06816C54.6999 7.06816 54.1972 7.23084 53.7937 7.55619C53.3971 7.87463 53.103 8.2969 52.9115 8.82302C52.7268 9.34221 52.6345 9.90639 52.6345 10.5156C52.6345 11.1317 52.7268 11.6993 52.9115 12.2185C53.103 12.7377 53.3971 13.1531 53.7937 13.4646C54.1972 13.7761 54.6999 13.9318 55.3017 13.9318C55.8557 13.9318 56.3344 13.7692 56.7379 13.4438C57.1482 13.1184 57.4355 12.6823 57.5996 12.1354L59.5282 12.8727C59.1931 13.8211 58.6562 14.5618 57.9176 15.0948C57.179 15.6209 56.3139 15.884 55.3222 15.884Z" fill="#2E2E2E"/>
<path d="M61.3033 1.0144H63.4576V6.70472C63.8201 6.17861 64.268 5.78403 64.8014 5.52097C65.3349 5.25099 65.8991 5.116 66.4941 5.116C67.3148 5.116 68.0021 5.30983 68.556 5.69749C69.1168 6.08516 69.5306 6.59742 69.7973 7.2343C70.064 7.87117 70.2008 8.57381 70.2076 9.34221V15.6867H68.0534V9.6641C68.0534 8.85417 67.8961 8.22076 67.5815 7.76387C67.2669 7.30006 66.7335 7.06816 65.9812 7.06816C65.4409 7.06816 64.9792 7.20314 64.5963 7.47312C64.2201 7.7431 63.9363 8.11692 63.7448 8.59457C63.5533 9.0653 63.4576 9.60526 63.4576 10.2144V15.6867H61.3033V1.0144Z" fill="#2E2E2E"/>
<path d="M72.7419 5.31329H74.9269V6.76702C75.262 6.23399 75.71 5.82556 76.2708 5.54174C76.8384 5.25791 77.4471 5.116 78.0968 5.116C78.9995 5.116 79.7826 5.35829 80.446 5.84287C81.1094 6.32745 81.612 6.98162 81.954 7.80541C82.3028 8.62226 82.4772 9.52219 82.4772 10.5052C82.4772 11.4882 82.3028 12.3916 81.954 13.2154C81.612 14.0322 81.1059 14.6829 80.4357 15.1675C79.7724 15.6452 78.9824 15.884 78.066 15.884C77.4163 15.884 76.8145 15.7455 76.2605 15.4686C75.7066 15.1848 75.262 14.7729 74.9269 14.233V19.9856H72.7419V5.31329ZM77.5736 13.9318C78.1754 13.9318 78.6815 13.783 79.0919 13.4853C79.509 13.1877 79.8202 12.7792 80.0254 12.2601C80.2306 11.7409 80.3331 11.1559 80.3331 10.5052C80.3331 9.84755 80.2306 9.2626 80.0254 8.75033C79.8202 8.23806 79.509 7.83656 79.0919 7.54581C78.6815 7.24814 78.1754 7.09931 77.5736 7.09931C76.9718 7.09931 76.4554 7.24814 76.0246 7.54581C75.6006 7.83656 75.2791 8.23806 75.0603 8.75033C74.8414 9.2626 74.732 9.84755 74.732 10.5052C74.732 11.1559 74.8414 11.7409 75.0603 12.2601C75.2791 12.7792 75.6006 13.1877 76.0246 13.4853C76.4554 13.783 76.9718 13.9318 77.5736 13.9318Z" fill="#2E2E2E"/>
<path d="M88.1197 5.116C89.0156 5.116 89.7884 5.29253 90.4381 5.64558C91.0878 5.99862 91.5836 6.49705 91.9256 7.14084C92.2675 7.77771 92.4385 8.52189 92.4385 9.37336V15.6867H90.6843L90.5407 14.0668C90.2124 14.6483 89.7371 15.0983 89.1148 15.4167C88.4993 15.7282 87.853 15.884 87.1759 15.884C86.4715 15.884 85.8423 15.7525 85.2884 15.4894C84.7344 15.2264 84.3001 14.8456 83.9856 14.3472C83.671 13.8419 83.5137 13.2465 83.5137 12.5612C83.5137 11.509 83.883 10.7475 84.6216 10.2767C85.3602 9.80602 86.3724 9.57065 87.6581 9.57065H90.5099C90.4963 8.95455 90.4142 8.46305 90.2637 8.09615C90.1133 7.72233 89.8671 7.44543 89.5251 7.26545C89.19 7.08546 88.725 6.99547 88.13 6.99547C87.5487 6.99547 87.0392 7.13392 86.6015 7.41082C86.1706 7.68772 85.815 8.06154 85.5346 8.53227L83.9138 7.34852C84.4335 6.62165 85.0285 6.06785 85.6987 5.68711C86.3758 5.30637 87.1828 5.116 88.1197 5.116ZM87.5965 14.0564C88.13 14.0564 88.6019 13.9388 89.0122 13.7034C89.4294 13.468 89.7645 13.1531 90.0175 12.7585C90.2706 12.3639 90.4347 11.9278 90.5099 11.4501V11.1282H87.7812C87.0973 11.1282 86.5775 11.2667 86.2219 11.5436C85.8663 11.8135 85.6885 12.1735 85.6885 12.6235C85.6885 13.0596 85.8526 13.4092 86.1809 13.6722C86.5091 13.9284 86.981 14.0564 87.5965 14.0564Z" fill="#2E2E2E"/>
<path d="M98.553 5.116C99.4489 5.116 100.222 5.29253 100.871 5.64558C101.521 5.99862 102.017 6.49705 102.359 7.14084C102.701 7.77771 102.872 8.52189 102.872 9.37336V15.6867H101.118L100.974 14.0668C100.646 14.6483 100.17 15.0983 99.548 15.4167C98.9325 15.7282 98.2862 15.884 97.6092 15.884C96.9048 15.884 96.2756 15.7525 95.7216 15.4894C95.1677 15.2264 94.7334 14.8456 94.4188 14.3472C94.1042 13.8419 93.9469 13.2465 93.9469 12.5612C93.9469 11.509 94.3162 10.7475 95.0548 10.2767C95.7934 9.80602 96.8056 9.57065 98.0913 9.57065H100.943C100.93 8.95455 100.847 8.46305 100.697 8.09615C100.547 7.72233 100.3 7.44543 99.9584 7.26545C99.6233 7.08546 99.1582 6.99547 98.5632 6.99547C97.9819 6.99547 97.4724 7.13392 97.0347 7.41082C96.6039 7.68772 96.2482 8.06154 95.9678 8.53227L94.347 7.34852C94.8668 6.62165 95.4618 6.06785 96.132 5.68711C96.809 5.30637 97.616 5.116 98.553 5.116ZM98.0298 14.0564C98.5632 14.0564 99.0351 13.9388 99.4454 13.7034C99.8626 13.468 100.198 13.1531 100.451 12.7585C100.704 12.3639 100.868 11.9278 100.943 11.4501V11.1282H98.2144C97.5305 11.1282 97.0108 11.2667 96.6552 11.5436C96.2995 11.8135 96.1217 12.1735 96.1217 12.6235C96.1217 13.0596 96.2859 13.4092 96.6141 13.6722C96.9424 13.9284 97.4143 14.0564 98.0298 14.0564Z" fill="#2E2E2E"/>
<path d="M108.761 15.884C107.796 15.884 107.044 15.6106 106.504 15.0637C105.97 14.5168 105.704 13.7622 105.704 12.8V7.12008H104.021V5.31329H105.734V2.59274L107.817 1.05594V5.31329H110.484V7.12008H107.817V12.4366C107.817 12.9904 107.93 13.3884 108.155 13.6307C108.381 13.8661 108.706 13.9838 109.13 13.9838C109.54 13.9838 109.988 13.873 110.474 13.6515L110.484 15.5933C110.279 15.6694 110.019 15.7352 109.704 15.7905C109.39 15.8528 109.075 15.884 108.761 15.884Z" fill="#2E2E2E"/>
<path d="M112.095 1.0144H114.249V6.70472C114.612 6.17861 115.06 5.78403 115.593 5.52097C116.127 5.25099 116.691 5.116 117.286 5.116C118.106 5.116 118.794 5.30983 119.348 5.69749C119.908 6.08516 120.322 6.59742 120.589 7.2343C120.856 7.87117 120.992 8.57381 120.999 9.34221V15.6867H118.845V9.6641C118.845 8.85417 118.688 8.22076 118.373 7.76387C118.059 7.30006 117.525 7.06816 116.773 7.06816C116.233 7.06816 115.771 7.20314 115.388 7.47312C115.012 7.7431 114.728 8.11692 114.536 8.59457C114.345 9.0653 114.249 9.60526 114.249 10.2144V15.6867H112.095V1.0144Z" fill="#2E2E2E"/>
<path d="M126.58 15.884C125.896 15.884 125.26 15.7594 124.672 15.5102C124.091 15.254 123.595 14.9114 123.185 14.4822C122.781 14.0461 122.494 13.5615 122.323 13.0285L124.026 12.2704C124.211 12.7827 124.501 13.2154 124.898 13.5684C125.295 13.9145 125.821 14.0876 126.478 14.0876C126.888 14.0876 127.233 14.0184 127.514 13.8799C127.801 13.7415 128.016 13.5615 128.16 13.34C128.304 13.1184 128.376 12.8831 128.376 12.6339C128.376 12.35 128.283 12.1216 128.099 11.9485C127.914 11.7686 127.681 11.6266 127.401 11.5228C127.121 11.419 126.731 11.3013 126.231 11.1698C125.541 10.9898 124.977 10.8098 124.539 10.6298C124.108 10.4429 123.735 10.1591 123.421 9.77833C123.113 9.39066 122.959 8.87147 122.959 8.22076C122.959 7.55619 123.127 6.99201 123.462 6.5282C123.797 6.05747 124.245 5.70442 124.806 5.46905C125.366 5.23369 125.985 5.116 126.662 5.116C127.51 5.116 128.259 5.30983 128.909 5.69749C129.559 6.08516 130.075 6.63204 130.458 7.33813L128.817 8.24152C128.304 7.29314 127.562 6.81894 126.591 6.81894C126.105 6.81894 125.715 6.92624 125.421 7.14084C125.134 7.34852 124.99 7.61504 124.99 7.94039C124.99 8.18268 125.076 8.3869 125.247 8.55304C125.424 8.71226 125.647 8.84378 125.913 8.94762C126.18 9.04454 126.546 9.15876 127.011 9.29029C127.729 9.49104 128.317 9.69526 128.776 9.90293C129.234 10.1037 129.627 10.4152 129.955 10.8375C130.29 11.2597 130.458 11.8239 130.458 12.53C130.458 13.2638 130.277 13.8834 129.914 14.3887C129.552 14.8872 129.077 15.261 128.488 15.5102C127.9 15.7594 127.264 15.884 126.58 15.884Z" fill="#2E2E2E"/>
<path d="M132.51 1.0144H134.664V6.70472C135.027 6.17861 135.475 5.78403 136.008 5.52097C136.542 5.25099 137.106 5.116 137.701 5.116C138.522 5.116 139.209 5.30983 139.763 5.69749C140.324 6.08516 140.737 6.59742 141.004 7.2343C141.271 7.87117 141.408 8.57381 141.414 9.34221V15.6867H139.26V9.6641C139.26 8.85417 139.103 8.22076 138.788 7.76387C138.474 7.30006 137.94 7.06816 137.188 7.06816C136.648 7.06816 136.186 7.20314 135.803 7.47312C135.427 7.7431 135.143 8.11692 134.952 8.59457C134.76 9.0653 134.664 9.60526 134.664 10.2144V15.6867H132.51V1.0144Z" fill="#2E2E2E"/>
<path d="M147.601 5.116C148.497 5.116 149.269 5.29253 149.919 5.64558C150.569 5.99862 151.065 6.49705 151.407 7.14084C151.748 7.77771 151.919 8.52189 151.919 9.37336V15.6867H150.165L150.022 14.0668C149.693 14.6483 149.218 15.0983 148.596 15.4167C147.98 15.7282 147.334 15.884 146.657 15.884C145.952 15.884 145.323 15.7525 144.769 15.4894C144.215 15.2264 143.781 14.8456 143.466 14.3472C143.152 13.8419 142.995 13.2465 142.995 12.5612C142.995 11.509 143.364 10.7475 144.103 10.2767C144.841 9.80602 145.853 9.57065 147.139 9.57065H149.991C149.977 8.95455 149.895 8.46305 149.745 8.09615C149.594 7.72233 149.348 7.44543 149.006 7.26545C148.671 7.08546 148.206 6.99547 147.611 6.99547C147.03 6.99547 146.52 7.13392 146.082 7.41082C145.652 7.68772 145.296 8.06154 145.016 8.53227L143.395 7.34852C143.914 6.62165 144.509 6.06785 145.18 5.68711C145.857 5.30637 146.664 5.116 147.601 5.116ZM147.077 14.0564C147.611 14.0564 148.083 13.9388 148.493 13.7034C148.91 13.468 149.245 13.1531 149.498 12.7585C149.752 12.3639 149.916 11.9278 149.991 11.4501V11.1282H147.262C146.578 11.1282 146.058 11.2667 145.703 11.5436C145.347 11.8135 145.169 12.1735 145.169 12.6235C145.169 13.0596 145.334 13.4092 145.662 13.6722C145.99 13.9284 146.462 14.0564 147.077 14.0564Z" fill="#2E2E2E"/>
<path d="M156.423 15.884C155.753 15.884 155.24 15.7075 154.885 15.3544C154.536 14.9945 154.361 14.4026 154.361 13.5788V1.0144H156.475V12.9973C156.475 13.3088 156.546 13.5476 156.69 13.7138C156.834 13.873 157.07 13.9526 157.398 13.9526C157.569 13.9526 157.815 13.9284 158.137 13.8799L158.147 15.6867C157.511 15.8182 156.936 15.884 156.423 15.884Z" fill="#2E2E2E"/>
<path d="M163.42 5.116C164.316 5.116 165.089 5.29253 165.738 5.64558C166.388 5.99862 166.884 6.49705 167.226 7.14084C167.568 7.77771 167.739 8.52189 167.739 9.37336V15.6867H165.985L165.841 14.0668C165.513 14.6483 165.037 15.0983 164.415 15.4167C163.8 15.7282 163.153 15.884 162.476 15.884C161.772 15.884 161.143 15.7525 160.589 15.4894C160.035 15.2264 159.6 14.8456 159.286 14.3472C158.971 13.8419 158.814 13.2465 158.814 12.5612C158.814 11.509 159.183 10.7475 159.922 10.2767C160.66 9.80602 161.673 9.57065 162.958 9.57065H165.81C165.797 8.95455 165.714 8.46305 165.564 8.09615C165.414 7.72233 165.167 7.44543 164.825 7.26545C164.49 7.08546 164.025 6.99547 163.43 6.99547C162.849 6.99547 162.339 7.13392 161.902 7.41082C161.471 7.68772 161.115 8.06154 160.835 8.53227L159.214 7.34852C159.734 6.62165 160.329 6.06785 160.999 5.68711C161.676 5.30637 162.483 5.116 163.42 5.116ZM162.897 14.0564C163.43 14.0564 163.902 13.9388 164.312 13.7034C164.73 13.468 165.065 13.1531 165.318 12.7585C165.571 12.3639 165.735 11.9278 165.81 11.4501V11.1282H163.081C162.398 11.1282 161.878 11.2667 161.522 11.5436C161.167 11.8135 160.989 12.1735 160.989 12.6235C160.989 13.0596 161.153 13.4092 161.481 13.6722C161.809 13.9284 162.281 14.0564 162.897 14.0564Z" fill="#2E2E2E"/>
<path d="M169.49 15.0682C169.49 14.822 169.532 14.5927 169.616 14.3805C169.708 14.1597 169.831 13.9687 169.982 13.8073C170.142 13.646 170.327 13.5187 170.538 13.4253C170.757 13.3319 170.988 13.2852 171.232 13.2852C171.476 13.2852 171.704 13.3319 171.914 13.4253C172.133 13.5187 172.322 13.646 172.482 13.8073C172.642 13.9687 172.768 14.1597 172.861 14.3805C172.954 14.5927 173 14.822 173 15.0682C173 15.3229 172.954 15.5564 172.861 15.7687C172.768 15.9809 172.642 16.1677 172.482 16.3291C172.322 16.4904 172.133 16.6135 171.914 16.6984C171.704 16.7918 171.476 16.8385 171.232 16.8385C170.988 16.8385 170.757 16.7918 170.538 16.6984C170.327 16.6135 170.142 16.4904 169.982 16.3291C169.831 16.1677 169.708 15.9809 169.616 15.7687C169.532 15.5564 169.49 15.3229 169.49 15.0682Z" fill="#F3BD00"/>
</svg>
